<svg xmlns="http://www.w3.org/2000/svg" height="464pt" version="1.1" viewBox="-22 0 464 464" width="464pt">
<g id="surface1">
<path d="M 368 16 C 367.972656 7.175781 360.824219 0.0273438 352 0 L 104 0 L 104 80 C 104 88.835938 96.835938 96 88 96 L 0 96 L 0 448 C 0.0273438 456.824219 7.175781 463.972656 16 464 L 352 464 C 360.824219 463.972656 367.972656 456.824219 368 448 Z M 272 160 Z M 88 160 Z M 224 208 Z M 176 256 Z M 128 304 Z M 128 304 " style=" stroke:none;fill-rule:nonzero;fill:rgb(100%,91.372549%,80%);fill-opacity:1;" />
<path d="M 122.585938 421.425781 L 133.894531 342.230469 L 184.808594 359.199219 L 201.785156 410.113281 Z M 122.585938 421.425781 " style=" stroke:none;fill-rule:nonzero;fill:rgb(57.647059%,58.431373%,59.607843%);fill-opacity:1;" />
<path d="M 104 464 L 352 464 C 360.835938 464 368 456.835938 368 448 L 368 216.726562 C 324.300781 336.425781 226.296875 428.21875 104 464 Z M 104 464 " style=" stroke:none;fill-rule:nonzero;fill:rgb(100%,88.627451%,74.117647%);fill-opacity:1;" />
<path d="M 303.609375 172.523438 L 326.234375 149.898438 L 394.117188 217.78125 L 371.492188 240.40625 Z M 303.609375 172.523438 " style=" stroke:none;fill-rule:nonzero;fill:rgb(67.45098%,67.058824%,69.411765%);fill-opacity:1;" />
<path d="M 366.351562 124.800781 C 363.644531 125.066406 360.96875 125.574219 358.351562 126.320312 C 350.488281 128.558594 343.328125 132.769531 337.550781 138.558594 L 326.273438 149.921875 L 394.113281 217.761719 L 405.390625 206.480469 C 419.789062 192.09375 423.546875 170.191406 414.769531 151.828125 C 405.992188 133.464844 386.589844 122.632812 366.351562 124.800781 Z M 366.351562 124.800781 " style=" stroke:none;fill-rule:nonzero;fill:rgb(77.647059%,77.254902%,79.215686%);fill-opacity:1;" />
<path d="M 303.648438 172.480469 L 133.886719 342.238281 L 179.199219 364.847656 L 280.984375 263.023438 L 179.199219 364.847656 L 189.414062 385.273438 L 201.847656 410.070312 L 366.398438 245.527344 L 371.519531 240.40625 L 358.382812 227.273438 Z M 304.375 239.632812 L 315.695312 228.320312 Z M 304.375 239.632812 " style=" stroke:none;fill-rule:nonzero;fill:rgb(100%,84.313725%,20%);fill-opacity:1;" />
<path d="M 104 80 L 104 0 L 0 96 L 88 96 C 96.835938 96 104 88.835938 104 80 Z M 104 80 " style=" stroke:none;fill-rule:nonzero;fill:rgb(100%,66.27451%,57.647059%);fill-opacity:1;" />
<path d="M 200.609375 351.40625 C 197.371094 351.410156 194.449219 349.460938 193.210938 346.46875 C 191.972656 343.476562 192.660156 340.03125 194.953125 337.742188 L 280.800781 251.921875 C 282.761719 249.667969 285.816406 248.699219 288.71875 249.40625 C 291.621094 250.109375 293.890625 252.375 294.597656 255.277344 C 295.308594 258.179688 294.34375 261.234375 292.097656 263.199219 L 206.265625 349.0625 C 204.765625 350.5625 202.730469 351.40625 200.609375 351.40625 Z M 200.609375 351.40625 " style=" stroke:none;fill-rule:nonzero;fill:rgb(94.509804%,94.901961%,94.901961%);fill-opacity:1;" />
<path d="M 309.0625 242.945312 C 305.828125 242.941406 302.914062 240.996094 301.675781 238.003906 C 300.4375 235.015625 301.121094 231.574219 303.40625 229.289062 L 314.71875 217.976562 C 317.859375 214.945312 322.847656 214.988281 325.933594 218.074219 C 329.019531 221.160156 329.0625 226.148438 326.03125 229.289062 L 314.71875 240.601562 C 313.222656 242.105469 311.1875 242.949219 309.0625 242.945312 Z M 309.0625 242.945312 " style=" stroke:none;fill-rule:nonzero;fill:rgb(94.509804%,94.901961%,94.901961%);fill-opacity:1;" />
<path d="M 224 216 L 56 216 C 51.582031 216 48 212.417969 48 208 C 48 203.582031 51.582031 200 56 200 L 224 200 C 228.417969 200 232 203.582031 232 208 C 232 212.417969 228.417969 216 224 216 Z M 224 216 " style=" stroke:none;fill-rule:nonzero;fill:rgb(100%,47.45098%,33.72549%);fill-opacity:1;" />
<path d="M 176 264 L 56 264 C 51.582031 264 48 260.417969 48 256 C 48 251.582031 51.582031 248 56 248 L 176 248 C 180.417969 248 184 251.582031 184 256 C 184 260.417969 180.417969 264 176 264 Z M 176 264 " style=" stroke:none;fill-rule:nonzero;fill:rgb(100%,47.45098%,33.72549%);fill-opacity:1;" />
<path d="M 128 312 L 56 312 C 51.582031 312 48 308.417969 48 304 C 48 299.582031 51.582031 296 56 296 L 128 296 C 132.417969 296 136 299.582031 136 304 C 136 308.417969 132.417969 312 128 312 Z M 128 312 " style=" stroke:none;fill-rule:nonzero;fill:rgb(100%,47.45098%,33.72549%);fill-opacity:1;" />
<path d="M 272 168 L 120 168 C 115.582031 168 112 164.417969 112 160 C 112 155.582031 115.582031 152 120 152 L 272 152 C 276.417969 152 280 155.582031 280 160 C 280 164.417969 276.417969 168 272 168 Z M 272 168 " style=" stroke:none;fill-rule:nonzero;fill:rgb(100%,47.45098%,33.72549%);fill-opacity:1;" />
<path d="M 88 168 L 56 168 C 51.582031 168 48 164.417969 48 160 C 48 155.582031 51.582031 152 56 152 L 88 152 C 92.417969 152 96 155.582031 96 160 C 96 164.417969 92.417969 168 88 168 Z M 88 168 " style=" stroke:none;fill-rule:nonzero;fill:rgb(100%,47.45098%,33.72549%);fill-opacity:1;" />
</g>
</svg>