<?xml version="1.0" encoding="UTF-8"?>
<svg xmlns="http://www.w3.org/2000/svg" xmlns:xlink="http://www.w3.org/1999/xlink" width="32pt" height="32pt" viewBox="0 0 32 32" version="1.1">
<g id="surface1">
<path style=" stroke:none;fill-rule:nonzero;fill:rgb(0%,0%,0%);fill-opacity:1;" d="M 19.734375 2.976562 C 18.074219 4.617188 16.53125 5.953125 16.289062 5.953125 C 16.046875 5.953125 15.230469 5.332031 14.433594 4.59375 L 12.988281 3.238281 L 11.375 4.832031 L 9.757812 6.429688 L 12.941406 9.570312 L 16.121094 12.714844 L 19.445312 9.59375 C 21.277344 7.855469 23.492188 5.738281 24.410156 4.832031 L 26.023438 3.191406 L 24.410156 1.617188 L 22.769531 0.0234375 Z M 19.734375 2.976562 "/>
<path style=" stroke:none;fill-rule:nonzero;fill:rgb(0%,0%,0%);fill-opacity:1;" d="M 1.613281 7.808594 L 0 9.429688 L 0.988281 10.355469 C 1.519531 10.882812 2.964844 12.355469 4.144531 13.644531 L 6.335938 15.976562 L 4.796875 17.523438 L 3.253906 19.046875 L 4.890625 20.667969 L 6.507812 22.261719 L 9.6875 19.117188 L 12.867188 15.976562 L 8.746094 11.738281 C 6.480469 9.40625 4.3125 7.214844 3.925781 6.855469 L 3.230469 6.191406 Z M 1.613281 7.808594 "/>
<path style=" stroke:none;fill-rule:nonzero;fill:rgb(0%,0%,0%);fill-opacity:1;" d="M 22.554688 12.855469 L 19.492188 15.976562 L 20.21875 16.855469 C 20.601562 17.332031 22.769531 19.546875 24.988281 21.738281 L 29.058594 25.738281 L 30.578125 24.167969 L 32.097656 22.617188 L 31.375 21.714844 C 30.964844 21.238281 29.542969 19.761719 28.21875 18.476562 L 25.808594 16.09375 L 27.253906 14.59375 C 28.023438 13.761719 28.675781 12.976562 28.675781 12.855469 C 28.675781 12.59375 26.046875 9.761719 25.78125 9.761719 C 25.6875 9.761719 24.242188 11.167969 22.554688 12.855469 Z M 22.554688 12.855469 "/>
<path style=" stroke:none;fill-rule:nonzero;fill:rgb(0%,0%,0%);fill-opacity:1;" d="M 11.085938 23.976562 L 6.242188 28.644531 L 7.878906 30.285156 L 9.519531 31.90625 L 12.289062 29.214844 C 16.480469 25.144531 15.855469 25.382812 17.710938 27.167969 L 19.300781 28.667969 L 20.914062 27.070312 L 22.53125 25.476562 L 19.878906 22.832031 C 18.410156 21.382812 16.941406 20 16.578125 19.738281 L 15.953125 19.285156 Z M 11.085938 23.976562 "/>
</g>
</svg>
