<?xml version="1.0" encoding="iso-8859-1"?>
<!-- Generator: Adobe Illustrator 19.0.0, SVG Export Plug-In . SVG Version: 6.00 Build 0)  -->
<svg version="1.1" id="Layer_1" xmlns="http://www.w3.org/2000/svg" xmlns:xlink="http://www.w3.org/1999/xlink" x="0px" y="0px"
	 viewBox="0 0 286.052 286.052" style="enable-background:new 0 0 286.052 286.052;" xml:space="preserve">
<g>
	<path style="fill:#3DB39E;" d="M78.493,143.181H62.832v-0.125c0-43.623,34.809-80.328,79.201-80.122
		c21.642,0.098,41.523,8.841,55.691,23.135l25.843-24.931c-20.864-21.043-49.693-34.049-81.534-34.049
		c-63.629,0-115.208,51.955-115.298,116.075h-15.84c-9.708,0-13.677,6.49-8.823,14.437l33.799,33.504
		c6.704,6.704,10.736,6.91,17.646,0l33.799-33.504C92.17,149.662,88.192,143.181,78.493,143.181z M283.978,129.236l-33.799-33.433
		c-6.892-6.892-11.156-6.481-17.637,0l-33.799,33.433c-4.854,7.929-0.894,14.419,8.814,14.419h15.635
		c-0.25,43.337-34.943,79.72-79.183,79.514c-21.633-0.089-41.505-8.814-55.691-23.099l-25.843,24.896
		c20.873,21.007,49.702,33.996,81.534,33.996c63.432,0,114.869-51.579,115.28-115.298h15.867
		C284.872,143.655,288.832,137.156,283.978,129.236z"/>
</g>
<g>
</g>
<g>
</g>
<g>
</g>
<g>
</g>
<g>
</g>
<g>
</g>
<g>
</g>
<g>
</g>
<g>
</g>
<g>
</g>
<g>
</g>
<g>
</g>
<g>
</g>
<g>
</g>
<g>
</g>
</svg>
